<?xml version="1.0" encoding="UTF-8" standalone="no"?><!DOCTYPE svg PUBLIC "-//W3C//DTD SVG 1.1//EN" "http://www.w3.org/Graphics/SVG/1.1/DTD/svg11.dtd"><svg width="100%" height="100%" viewBox="0 0 140 86" version="1.1" xmlns="http://www.w3.org/2000/svg" xmlns:xlink="http://www.w3.org/1999/xlink" xml:space="preserve" xmlns:serif="http://www.serif.com/" style="fill-rule:evenodd;clip-rule:evenodd;stroke-linejoin:round;stroke-miterlimit:2;"><g id="NavBar-Logo"><g><path d="M95.83,73.827l-52.635,-0c-5.852,-0 -10.595,-4.744 -10.595,-10.596l-0,-52.634c-0,-5.853 4.743,-10.597 10.595,-10.597l52.635,-0c5.852,-0 10.596,4.744 10.596,10.597l-0,52.634c-0,5.852 -4.744,10.596 -10.596,10.596" style="fill:#fff;fill-rule:nonzero;"/><path d="M70.092,52.22c-0.344,-0.255 -0.813,-0.255 -1.159,0l-8.057,5.969c-0.336,0.245 -0.472,0.68 -0.341,1.081c0.129,0.396 0.508,0.668 0.924,0.668l0.549,0l0,5.621l5.413,0l0,-4.447l4.178,0l0,4.447l5.412,0l0,-0.917c0,-0.018 0.013,-0.034 0.013,-0.054l0,-4.65l0.546,0c0.422,0 0.79,-0.272 0.92,-0.668c0.133,-0.401 -0.004,-0.836 -0.342,-1.081l-8.056,-5.969Z" style="fill:#29327b;fill-rule:nonzero;"/><path d="M51.535,24.029c2.774,-0 5.026,-2.247 5.026,-5.026c0,-2.77 -2.252,-5.018 -5.026,-5.018c-2.774,-0 -5.023,2.248 -5.023,5.018c0,2.779 2.249,5.026 5.023,5.026" style="fill:#29327b;fill-rule:nonzero;"/><path d="M87.49,24.029c2.774,-0 5.022,-2.247 5.022,-5.026c-0,-2.77 -2.248,-5.018 -5.022,-5.018c-2.773,-0 -5.024,2.248 -5.024,5.018c-0,2.779 2.251,5.026 5.024,5.026" style="fill:#29327b;fill-rule:nonzero;"/><path d="M83.142,61.494c0,2.4 1.946,4.349 4.348,4.349c2.402,0 4.345,-1.927 4.345,-4.349l0,-3.434l-8.693,0l0,3.434Z" style="fill:#29327b;fill-rule:nonzero;"/><path d="M87.49,26.813c-0.532,-0 -1.033,0.107 -1.506,0.281c-0.03,0.013 -0.061,0.019 -0.091,0.029c-0.096,0.04 -0.192,0.087 -0.289,0.136c-0.176,0.082 -0.35,0.174 -0.52,0.28c-0.019,0.013 -0.038,0.028 -0.06,0.043c-0.124,0.083 -0.257,0.161 -0.371,0.26l-0.763,0.64l-13.592,11.406c-0.223,0.181 -0.508,0.27 -0.797,0.27c-0.289,-0 -0.579,-0.089 -0.804,-0.27l-14.353,-12.046c-0.05,-0.042 -0.106,-0.066 -0.158,-0.109c-0.144,-0.107 -0.291,-0.209 -0.446,-0.3c-0.067,-0.04 -0.134,-0.077 -0.203,-0.112c-0.6,-0.314 -1.276,-0.508 -2.002,-0.508c-2.401,-0 -4.347,1.945 -4.347,4.347l-0,30.335c-0,2.4 1.946,4.349 4.347,4.349c2.403,-0 4.349,-1.927 4.349,-4.349l-0,-21.453c4.919,4.124 10.915,9.149 10.915,9.149c0.686,0.58 1.511,0.895 2.342,0.96c0.017,-0 0.033,-0 0.045,0.004c0.104,0.008 0.209,0.014 0.313,0.014l0.002,-0c0.103,-0 0.207,-0.006 0.311,-0.014c0.013,-0.004 0.029,-0.004 0.043,-0.004c0.834,-0.065 1.656,-0.38 2.348,-0.96c-0,-0 5.908,-4.961 10.923,-9.165c-0.725,8.211 -2.686,15.264 -2.686,15.264c-0.13,0.508 0.193,0.922 0.714,0.922l10.682,-0l0.001,-25.052c-0.001,-2.402 -1.945,-4.347 -4.347,-4.347" style="fill:#29327b;fill-rule:nonzero;"/></g><g><path d="M1.405,83.101l-0,2.255l-1.319,-0l0,-6.399l2.496,0c0.481,0 0.903,0.088 1.268,0.264c0.365,0.176 0.645,0.425 0.842,0.749c0.196,0.324 0.294,0.692 0.294,1.105c0,0.627 -0.214,1.122 -0.644,1.483c-0.429,0.362 -1.023,0.543 -1.782,0.543l-1.155,0Zm-0,-1.068l1.177,0c0.349,0 0.615,-0.082 0.798,-0.246c0.183,-0.164 0.275,-0.398 0.275,-0.703c-0,-0.313 -0.093,-0.567 -0.277,-0.76c-0.185,-0.194 -0.44,-0.293 -0.765,-0.299l-1.208,-0l-0,2.008Z" style="fill:#29327b;fill-rule:nonzero;"/><path d="M8.188,83.013l-1.05,0l-0,2.343l-1.319,-0l0,-6.399l2.378,0c0.756,0 1.339,0.169 1.749,0.505c0.41,0.337 0.615,0.813 0.615,1.429c-0,0.436 -0.095,0.8 -0.283,1.092c-0.189,0.291 -0.476,0.523 -0.86,0.696l1.385,2.615l-0,0.062l-1.415,-0l-1.2,-2.343Zm-1.05,-1.068l1.063,0c0.331,0 0.587,-0.084 0.769,-0.252c0.182,-0.169 0.273,-0.401 0.273,-0.697c-0,-0.302 -0.086,-0.539 -0.257,-0.712c-0.172,-0.173 -0.435,-0.259 -0.789,-0.259l-1.059,-0l-0,1.92Z" style="fill:#29327b;fill-rule:nonzero;"/><path d="M14.491,85.356l-1.27,-0l-0,-4.896l-1.516,0.47l-0,-1.033l2.65,-0.949l0.136,0l-0,6.408Z" style="fill:#29327b;fill-rule:nonzero;"/><path d="M18.408,78.957l1.643,4.641l1.635,-4.641l1.732,0l-0,6.399l-1.323,-0l-0,-1.75l0.132,-3.019l-1.727,4.769l-0.906,-0l-1.722,-4.764l0.131,3.014l0,1.75l-1.318,-0l0,-6.399l1.723,0Z" style="fill:#29327b;fill-rule:nonzero;"/><path d="M28.161,84.037l-2.312,0l-0.439,1.319l-1.402,-0l2.382,-6.399l1.221,0l2.395,6.399l-1.402,-0l-0.443,-1.319Zm-1.956,-1.068l1.6,0l-0.805,-2.395l-0.795,2.395Z" style="fill:#29327b;fill-rule:nonzero;"/><path d="M37.207,83.224c-0.05,0.689 -0.304,1.231 -0.763,1.626c-0.458,0.396 -1.063,0.593 -1.813,0.593c-0.82,0 -1.465,-0.276 -1.935,-0.828c-0.471,-0.552 -0.706,-1.31 -0.706,-2.274l0,-0.391c0,-0.615 0.109,-1.157 0.326,-1.626c0.216,-0.469 0.526,-0.829 0.929,-1.079c0.403,-0.251 0.871,-0.376 1.404,-0.376c0.738,0 1.333,0.198 1.784,0.593c0.451,0.396 0.712,0.951 0.782,1.666l-1.318,-0c-0.032,-0.413 -0.147,-0.713 -0.345,-0.899c-0.198,-0.186 -0.499,-0.279 -0.903,-0.279c-0.439,0 -0.768,0.158 -0.987,0.473c-0.218,0.315 -0.33,0.803 -0.336,1.465l0,0.484c0,0.691 0.105,1.196 0.315,1.516c0.209,0.319 0.539,0.479 0.99,0.479c0.408,-0 0.712,-0.093 0.912,-0.279c0.201,-0.186 0.316,-0.474 0.345,-0.864l1.319,0Z" style="fill:#29327b;fill-rule:nonzero;"/><path d="M43.164,82.301c-0,0.63 -0.112,1.182 -0.334,1.657c-0.223,0.475 -0.542,0.841 -0.956,1.099c-0.415,0.257 -0.89,0.386 -1.426,0.386c-0.531,0 -1.004,-0.127 -1.42,-0.382c-0.416,-0.255 -0.738,-0.619 -0.966,-1.092c-0.229,-0.473 -0.345,-1.017 -0.348,-1.633l0,-0.316c0,-0.63 0.114,-1.184 0.341,-1.663c0.227,-0.479 0.548,-0.847 0.962,-1.103c0.415,-0.257 0.889,-0.385 1.422,-0.385c0.533,0 1.007,0.128 1.422,0.385c0.414,0.256 0.735,0.624 0.962,1.103c0.227,0.479 0.341,1.032 0.341,1.659l-0,0.285Zm-1.336,-0.29c-0,-0.671 -0.12,-1.18 -0.361,-1.529c-0.24,-0.349 -0.583,-0.523 -1.028,-0.523c-0.442,0 -0.784,0.172 -1.024,0.516c-0.24,0.345 -0.362,0.849 -0.365,1.514l0,0.312c0,0.654 0.12,1.16 0.361,1.521c0.24,0.36 0.586,0.54 1.037,0.54c0.442,0 0.782,-0.173 1.019,-0.52c0.238,-0.348 0.358,-0.854 0.361,-1.519l-0,-0.312Z" style="fill:#29327b;fill-rule:nonzero;"/><path d="M46.474,83.013l-1.05,0l-0,2.343l-1.319,-0l0,-6.399l2.378,0c0.756,0 1.339,0.169 1.749,0.505c0.41,0.337 0.615,0.813 0.615,1.429c0,0.436 -0.094,0.8 -0.283,1.092c-0.189,0.291 -0.476,0.523 -0.86,0.696l1.385,2.615l-0,0.062l-1.415,-0l-1.2,-2.343Zm-1.05,-1.068l1.063,0c0.331,0 0.588,-0.084 0.769,-0.252c0.182,-0.169 0.273,-0.401 0.273,-0.697c-0,-0.302 -0.086,-0.539 -0.257,-0.712c-0.172,-0.173 -0.435,-0.259 -0.789,-0.259l-1.059,-0l-0,1.92Z" style="fill:#29327b;fill-rule:nonzero;"/><path d="M51.151,83.101l0,2.255l-1.318,-0l-0,-6.399l2.496,0c0.48,0 0.903,0.088 1.268,0.264c0.364,0.176 0.645,0.425 0.841,0.749c0.196,0.324 0.295,0.692 0.295,1.105c-0,0.627 -0.215,1.122 -0.644,1.483c-0.429,0.362 -1.023,0.543 -1.782,0.543l-1.156,0Zm0,-1.068l1.178,0c0.348,0 0.614,-0.082 0.797,-0.246c0.184,-0.164 0.275,-0.398 0.275,-0.703c0,-0.313 -0.092,-0.567 -0.277,-0.76c-0.184,-0.194 -0.439,-0.293 -0.764,-0.299l-1.209,-0l0,2.008Z" style="fill:#29327b;fill-rule:nonzero;"/><path d="M60.822,82.301c-0,0.63 -0.112,1.182 -0.334,1.657c-0.223,0.475 -0.542,0.841 -0.956,1.099c-0.415,0.257 -0.89,0.386 -1.426,0.386c-0.531,0 -1.004,-0.127 -1.42,-0.382c-0.416,-0.255 -0.738,-0.619 -0.966,-1.092c-0.229,-0.473 -0.345,-1.017 -0.348,-1.633l0,-0.316c0,-0.63 0.114,-1.184 0.341,-1.663c0.227,-0.479 0.548,-0.847 0.962,-1.103c0.415,-0.257 0.889,-0.385 1.422,-0.385c0.533,0 1.007,0.128 1.422,0.385c0.414,0.256 0.735,0.624 0.962,1.103c0.227,0.479 0.341,1.032 0.341,1.659l-0,0.285Zm-1.336,-0.29c-0,-0.671 -0.12,-1.18 -0.361,-1.529c-0.24,-0.349 -0.583,-0.523 -1.028,-0.523c-0.442,0 -0.784,0.172 -1.024,0.516c-0.24,0.345 -0.362,0.849 -0.365,1.514l0,0.312c0,0.654 0.12,1.16 0.361,1.521c0.24,0.36 0.586,0.54 1.037,0.54c0.442,0 0.782,-0.173 1.019,-0.52c0.238,-0.348 0.358,-0.854 0.361,-1.519l-0,-0.312Z" style="fill:#29327b;fill-rule:nonzero;"/><path d="M64.132,83.013l-1.05,0l-0,2.343l-1.319,-0l0,-6.399l2.378,0c0.756,0 1.339,0.169 1.749,0.505c0.41,0.337 0.615,0.813 0.615,1.429c0,0.436 -0.094,0.8 -0.283,1.092c-0.189,0.291 -0.476,0.523 -0.86,0.696l1.385,2.615l-0,0.062l-1.415,-0l-1.2,-2.343Zm-1.05,-1.068l1.063,0c0.331,0 0.588,-0.084 0.769,-0.252c0.182,-0.169 0.273,-0.401 0.273,-0.697c-0,-0.302 -0.086,-0.539 -0.257,-0.712c-0.172,-0.173 -0.435,-0.259 -0.789,-0.259l-1.059,-0l-0,1.92Z" style="fill:#29327b;fill-rule:nonzero;"/><path d="M71.103,84.037l-2.311,0l-0.44,1.319l-1.402,-0l2.382,-6.399l1.222,0l2.395,6.399l-1.402,-0l-0.444,-1.319Zm-1.956,-1.068l1.6,0l-0.804,-2.395l-0.796,2.395Z" style="fill:#29327b;fill-rule:nonzero;"/><path d="M78.031,80.025l-1.96,-0l0,5.331l-1.318,-0l-0,-5.331l-1.934,-0l0,-1.068l5.212,0l0,1.068Z" style="fill:#29327b;fill-rule:nonzero;"/><rect x="78.464" y="78.957" width="1.318" height="6.398" style="fill:#29327b;fill-rule:nonzero;"/><path d="M86.257,82.301c0,0.63 -0.111,1.182 -0.334,1.657c-0.222,0.475 -0.541,0.841 -0.956,1.099c-0.414,0.257 -0.89,0.386 -1.426,0.386c-0.53,0 -1.003,-0.127 -1.419,-0.382c-0.416,-0.255 -0.738,-0.619 -0.967,-1.092c-0.228,-0.473 -0.344,-1.017 -0.347,-1.633l-0,-0.316c-0,-0.63 0.113,-1.184 0.341,-1.663c0.227,-0.479 0.547,-0.847 0.962,-1.103c0.414,-0.257 0.888,-0.385 1.422,-0.385c0.533,0 1.007,0.128 1.421,0.385c0.415,0.256 0.736,0.624 0.963,1.103c0.227,0.479 0.34,1.032 0.34,1.659l0,0.285Zm-1.336,-0.29c0,-0.671 -0.12,-1.18 -0.36,-1.529c-0.24,-0.349 -0.583,-0.523 -1.028,-0.523c-0.443,0 -0.784,0.172 -1.024,0.516c-0.241,0.345 -0.362,0.849 -0.365,1.514l-0,0.312c-0,0.654 0.12,1.16 0.36,1.521c0.24,0.36 0.586,0.54 1.037,0.54c0.443,0 0.783,-0.173 1.02,-0.52c0.237,-0.348 0.357,-0.854 0.36,-1.519l0,-0.312Z" style="fill:#29327b;fill-rule:nonzero;"/><path d="M92.415,85.356l-1.318,-0l-2.566,-4.21l-0,4.21l-1.319,-0l0,-6.399l1.319,0l2.57,4.219l0,-4.219l1.314,0l0,6.399Z" style="fill:#29327b;fill-rule:nonzero;"/><path d="M97.527,78.957l1.643,4.641l1.635,-4.641l1.732,0l-0,6.399l-1.323,-0l-0,-1.75l0.132,-3.019l-1.727,4.769l-0.906,-0l-1.722,-4.764l0.132,3.014l-0,1.75l-1.319,-0l0,-6.399l1.723,0Z" style="fill:#29327b;fill-rule:nonzero;"/><path d="M107.247,84.037l-2.312,0l-0.439,1.319l-1.402,-0l2.382,-6.399l1.221,0l2.395,6.399l-1.402,-0l-0.443,-1.319Zm-1.956,-1.068l1.6,0l-0.805,-2.395l-0.795,2.395Z" style="fill:#29327b;fill-rule:nonzero;"/><path d="M110.677,84.296l2.799,0l-0,1.06l-4.118,-0l0,-6.399l1.319,0l-0,5.339Z" style="fill:#29327b;fill-rule:nonzero;"/><path d="M117.975,84.037l-2.312,0l-0.439,1.319l-1.402,-0l2.382,-6.399l1.221,0l2.395,6.399l-1.402,-0l-0.443,-1.319Zm-1.956,-1.068l1.6,0l-0.805,-2.395l-0.795,2.395Z" style="fill:#29327b;fill-rule:nonzero;"/><path d="M122.292,81.84l1.332,-2.883l1.441,0l-2.1,4.078l-0,2.321l-1.341,-0l0,-2.321l-2.1,-4.078l1.446,0l1.322,2.883Z" style="fill:#29327b;fill-rule:nonzero;"/><path d="M129.128,83.677c0,-0.249 -0.088,-0.44 -0.264,-0.574c-0.175,-0.133 -0.492,-0.274 -0.949,-0.422c-0.457,-0.148 -0.819,-0.293 -1.085,-0.437c-0.727,-0.392 -1.09,-0.921 -1.09,-1.586c-0,-0.346 0.097,-0.654 0.292,-0.925c0.195,-0.271 0.475,-0.483 0.84,-0.635c0.364,-0.153 0.774,-0.229 1.228,-0.229c0.457,0 0.864,0.083 1.221,0.248c0.358,0.166 0.635,0.4 0.833,0.701c0.198,0.302 0.297,0.645 0.297,1.029l-1.319,-0c0,-0.293 -0.092,-0.521 -0.276,-0.684c-0.185,-0.162 -0.444,-0.244 -0.778,-0.244c-0.322,0 -0.573,0.069 -0.752,0.205c-0.178,0.136 -0.268,0.315 -0.268,0.538c0,0.208 0.105,0.382 0.314,0.523c0.21,0.141 0.518,0.273 0.926,0.396c0.75,0.225 1.296,0.505 1.639,0.839c0.342,0.334 0.514,0.75 0.514,1.248c-0,0.554 -0.21,0.988 -0.629,1.303c-0.419,0.315 -0.982,0.472 -1.691,0.472c-0.493,0 -0.941,-0.09 -1.345,-0.27c-0.404,-0.18 -0.713,-0.427 -0.925,-0.74c-0.213,-0.314 -0.319,-0.677 -0.319,-1.09l1.323,-0c-0,0.706 0.422,1.059 1.266,1.059c0.313,-0 0.558,-0.064 0.733,-0.191c0.176,-0.128 0.264,-0.306 0.264,-0.534Z" style="fill:#29327b;fill-rule:nonzero;"/><rect x="131.456" y="78.957" width="1.318" height="6.398" style="fill:#29327b;fill-rule:nonzero;"/><path d="M137.639,84.037l-2.312,0l-0.439,1.319l-1.402,-0l2.382,-6.399l1.221,0l2.395,6.399l-1.402,-0l-0.443,-1.319Zm-1.956,-1.068l1.6,0l-0.805,-2.395l-0.795,2.395Z" style="fill:#29327b;fill-rule:nonzero;"/></g></g></svg>